<svg xmlns="http://www.w3.org/2000/svg" id="Capa_1" viewBox="0 0 350 100"><path d="M180.266,44.278l.944-3.524h-4.593l-1.158,4.325,8.963,8.287-3.801,14.168h-18.444l2.764-10.3h7.031l-1.082,4.03h4.361l1.413-5.264-8.931-8.31,3.551-13.256,18.006.004-2.639,9.844-6.382-.004ZM211.998,34.438l-6.619,24.701-12.438-.004-2.25,8.399h-7.031l7.621-28.426,6.333-4.669h14.383ZM203.281,40.736l-5.407-.004-3.234,12.066h5.407l3.234-12.062ZM235.245,34.443l-8.873,33.095h-20.255l8.873-33.1,20.255.004ZM226.528,40.736h-6.172l-5.505,20.533h6.172l5.505-20.533ZM252.155,55.481h-3.806l1.221,12.062h-7.053l-.966-11.972h-1.856l-3.207,11.972-7.031-.004,7.621-28.426,1.252-4.669h19.464l-5.64,21.038ZM249.078,40.74h-5.407l-2.312,8.627h5.407l2.312-8.627ZM259.597,34.447l-1.686,6.293h6.565l-7.187,26.803h7.08l7.183-26.803h6.333l1.691-6.293h-19.978ZM297.361,44.291l2.639-9.839-18.001-.004-3.551,13.252,8.931,8.31-1.413,5.264h-4.361l1.078-4.025-7.026-.004-2.764,10.304h18.444l3.797-14.168-8.958-8.287,1.158-4.325h4.593l-.944,3.524h6.378ZM82.46,36.366l-4.003,14.924h12.818l3.998-14.924h-12.813ZM78.458,51.29h12.818l3.998-14.924h-12.813l-4.003,14.924ZM82.46,36.366l-4.003,14.924h12.818l3.998-14.924h-12.813ZM78.458,51.29h12.818l3.998-14.924h-12.813l-4.003,14.924ZM156.88,75.047h-.004l-6.758-26.262,6.762,26.262ZM150.118,48.786l6.758,26.262-6.758,6.346H57.08l-7.08-6.516,14.795-56.271h98.767l7.25,6.802-20.694,23.377ZM66.767,62.095l29.679.013,5.957-7.446,7.836-29.254h-29.781l-9.41,6.941-11.32,42.241h12.487l2.276-8.493-7.724-4.003ZM140.61,48.777l19.996-23.368h-16.181l-12.894,14.526-5.107-14.526h-16.181l7.473,23.368-20.653,25.814h17.013l12.263-15.273,4.079,15.273h17.013l-5.573-21.087-10.993-4.642,9.772.022-.027-.107Z" fill="#fff"></path></svg>